<mxfile host="app.diagrams.net" agent="Mozilla/5.0 (Windows NT 10.0; Win64; x64) AppleWebKit/537.36 (KHTML, like Gecko) Chrome/120.0.0.0 Safari/537.36" version="26.1.3">
  <diagram name="第 1 页" id="Yp-wlpUthCQfedZIy5Yd">
    <mxGraphModel dx="989" dy="509" grid="1" gridSize="10" guides="1" tooltips="1" connect="1" arrows="1" fold="1" page="1" pageScale="1" pageWidth="350" pageHeight="325" math="0" shadow="0">
      <root>
        <mxCell id="0" />
        <mxCell id="1" parent="0" />
        <mxCell id="H6e9tnJ6ShjufDfO8u7r-3" value="" style="html=1;verticalAlign=bottom;endArrow=block;curved=0;rounded=0;" parent="1" edge="1">
          <mxGeometry width="80" relative="1" as="geometry">
            <mxPoint x="15" y="160" as="sourcePoint" />
            <mxPoint x="345" y="159.75" as="targetPoint" />
          </mxGeometry>
        </mxCell>
        <mxCell id="H6e9tnJ6ShjufDfO8u7r-4" value="" style="html=1;verticalAlign=bottom;endArrow=block;curved=0;rounded=0;dashed=1;entryX=-0.013;entryY=0.085;entryDx=0;entryDy=0;entryPerimeter=0;" parent="1" target="H6e9tnJ6ShjufDfO8u7r-7" edge="1">
          <mxGeometry width="80" relative="1" as="geometry">
            <mxPoint x="175" y="320" as="sourcePoint" />
            <mxPoint x="176" y="30" as="targetPoint" />
            <Array as="points">
              <mxPoint x="176" y="70" />
            </Array>
          </mxGeometry>
        </mxCell>
        <mxCell id="H6e9tnJ6ShjufDfO8u7r-6" value="&lt;font style=&quot;vertical-align: inherit;&quot;&gt;&lt;font style=&quot;vertical-align: inherit; font-size: 20px;&quot;&gt;x&lt;/font&gt;&lt;/font&gt;" style="text;html=1;align=center;verticalAlign=middle;resizable=0;points=[];autosize=1;strokeColor=none;fillColor=none;fontFamily=Times New Roman;" parent="1" vertex="1">
          <mxGeometry x="315" y="150" width="30" height="40" as="geometry" />
        </mxCell>
        <mxCell id="H6e9tnJ6ShjufDfO8u7r-7" value="&lt;font style=&quot;vertical-align: inherit;&quot;&gt;&lt;font style=&quot;vertical-align: inherit; font-size: 20px;&quot;&gt;y&lt;/font&gt;&lt;/font&gt;" style="text;html=1;align=center;verticalAlign=middle;resizable=0;points=[];autosize=1;strokeColor=none;fillColor=none;fontFamily=Times New Roman;" parent="1" vertex="1">
          <mxGeometry x="175" y="10" width="30" height="40" as="geometry" />
        </mxCell>
        <mxCell id="H6e9tnJ6ShjufDfO8u7r-9" value="" style="endArrow=classic;html=1;rounded=0;" parent="1" edge="1">
          <mxGeometry width="50" height="50" relative="1" as="geometry">
            <mxPoint x="55" y="40" as="sourcePoint" />
            <mxPoint x="175" y="160" as="targetPoint" />
          </mxGeometry>
        </mxCell>
        <mxCell id="H6e9tnJ6ShjufDfO8u7r-10" value="" style="endArrow=classic;html=1;rounded=0;" parent="1" edge="1">
          <mxGeometry width="50" height="50" relative="1" as="geometry">
            <mxPoint x="175" y="160" as="sourcePoint" />
            <mxPoint x="275" y="320" as="targetPoint" />
          </mxGeometry>
        </mxCell>
        <mxCell id="H6e9tnJ6ShjufDfO8u7r-11" value="" style="endArrow=none;html=1;rounded=0;dashed=1;" parent="1" source="H6e9tnJ6ShjufDfO8u7r-33" edge="1">
          <mxGeometry width="50" height="50" relative="1" as="geometry">
            <mxPoint x="275" y="320" as="sourcePoint" />
            <mxPoint x="275" y="160" as="targetPoint" />
          </mxGeometry>
        </mxCell>
        <mxCell id="H6e9tnJ6ShjufDfO8u7r-12" value="" style="endArrow=none;html=1;rounded=0;dashed=1;" parent="1" edge="1">
          <mxGeometry width="50" height="50" relative="1" as="geometry">
            <mxPoint x="55" y="160" as="sourcePoint" />
            <mxPoint x="55" y="40" as="targetPoint" />
          </mxGeometry>
        </mxCell>
        <mxCell id="H6e9tnJ6ShjufDfO8u7r-16" value="" style="endArrow=none;html=1;rounded=0;curved=1;" parent="1" edge="1">
          <mxGeometry width="50" height="50" relative="1" as="geometry">
            <mxPoint x="165" y="150" as="sourcePoint" />
            <mxPoint x="175" y="140" as="targetPoint" />
            <Array as="points">
              <mxPoint x="165" y="140" />
            </Array>
          </mxGeometry>
        </mxCell>
        <mxCell id="H6e9tnJ6ShjufDfO8u7r-17" value="" style="endArrow=none;html=1;rounded=0;curved=1;" parent="1" edge="1">
          <mxGeometry width="50" height="50" relative="1" as="geometry">
            <mxPoint x="175" y="180" as="sourcePoint" />
            <mxPoint x="185" y="175" as="targetPoint" />
            <Array as="points">
              <mxPoint x="185" y="180" />
            </Array>
          </mxGeometry>
        </mxCell>
        <mxCell id="H6e9tnJ6ShjufDfO8u7r-18" value="&lt;font style=&quot;vertical-align: inherit;&quot;&gt;&lt;font style=&quot;vertical-align: inherit; font-size: 20px;&quot;&gt;α&lt;/font&gt;&lt;/font&gt;" style="text;html=1;align=center;verticalAlign=middle;resizable=0;points=[];autosize=1;strokeColor=none;fillColor=none;fontFamily=Times New Roman;" parent="1" vertex="1">
          <mxGeometry x="145" y="100" width="30" height="40" as="geometry" />
        </mxCell>
        <mxCell id="H6e9tnJ6ShjufDfO8u7r-20" value="&lt;font style=&quot;vertical-align: inherit;&quot;&gt;&lt;font style=&quot;vertical-align: inherit; font-size: 20px;&quot;&gt;β&lt;/font&gt;&lt;/font&gt;" style="text;html=1;align=center;verticalAlign=middle;resizable=0;points=[];autosize=1;strokeColor=none;fillColor=none;fontFamily=Times New Roman;" parent="1" vertex="1">
          <mxGeometry x="165" y="170" width="30" height="40" as="geometry" />
        </mxCell>
        <mxCell id="H6e9tnJ6ShjufDfO8u7r-22" value="&lt;span style=&quot;font-size: 20px;&quot;&gt;x&lt;/span&gt;" style="text;html=1;align=center;verticalAlign=middle;resizable=0;points=[];autosize=1;strokeColor=none;fillColor=none;fontFamily=Times New Roman;" parent="1" vertex="1">
          <mxGeometry x="45" y="150" width="30" height="40" as="geometry" />
        </mxCell>
        <mxCell id="H6e9tnJ6ShjufDfO8u7r-23" value="&lt;span style=&quot;font-size: 20px;&quot;&gt;x*&lt;/span&gt;" style="text;html=1;align=center;verticalAlign=middle;resizable=0;points=[];autosize=1;strokeColor=none;fillColor=none;fontFamily=Times New Roman;" parent="1" vertex="1">
          <mxGeometry x="255" y="120" width="40" height="40" as="geometry" />
        </mxCell>
        <mxCell id="H6e9tnJ6ShjufDfO8u7r-24" value="&lt;font style=&quot;font-size: 20px;&quot; face=&quot;Times New Roman&quot;&gt;o&lt;/font&gt;" style="text;html=1;align=center;verticalAlign=middle;resizable=0;points=[];autosize=1;strokeColor=none;fillColor=none;" parent="1" vertex="1">
          <mxGeometry x="145" y="150" width="30" height="40" as="geometry" />
        </mxCell>
        <mxCell id="H6e9tnJ6ShjufDfO8u7r-27" value="&lt;span style=&quot;font-size: 20px;&quot;&gt;P&lt;/span&gt;" style="text;html=1;align=center;verticalAlign=middle;resizable=0;points=[];autosize=1;strokeColor=none;fillColor=none;fontFamily=Times New Roman;" parent="1" vertex="1">
          <mxGeometry x="115" y="70" width="30" height="40" as="geometry" />
        </mxCell>
        <mxCell id="H6e9tnJ6ShjufDfO8u7r-28" value="&lt;span style=&quot;color: rgb(0, 0, 0); font-family: &amp;quot;Times New Roman&amp;quot;; font-style: normal; font-variant-ligatures: normal; font-variant-caps: normal; font-weight: 400; letter-spacing: normal; orphans: 2; text-align: center; text-indent: 0px; text-transform: none; widows: 2; word-spacing: 0px; -webkit-text-stroke-width: 0px; white-space: nowrap; background-color: rgb(251, 251, 251); text-decoration-thickness: initial; text-decoration-style: initial; text-decoration-color: initial; float: none; display: inline !important;&quot;&gt;&lt;sup style=&quot;&quot;&gt;&lt;span style=&quot;font-size: 20px;&quot;&gt;P*&lt;/span&gt;&lt;/sup&gt;&lt;/span&gt;" style="text;whiteSpace=wrap;html=1;" parent="1" vertex="1">
          <mxGeometry x="195" y="220" width="40" height="50" as="geometry" />
        </mxCell>
        <mxCell id="H6e9tnJ6ShjufDfO8u7r-29" value="" style="endArrow=none;html=1;rounded=0;exitX=0.994;exitY=0.275;exitDx=0;exitDy=0;exitPerimeter=0;dashed=1;" parent="1" source="H6e9tnJ6ShjufDfO8u7r-24" edge="1">
          <mxGeometry width="50" height="50" relative="1" as="geometry">
            <mxPoint x="365" y="320" as="sourcePoint" />
            <mxPoint x="295" y="280" as="targetPoint" />
          </mxGeometry>
        </mxCell>
        <mxCell id="H6e9tnJ6ShjufDfO8u7r-32" value="" style="shape=waypoint;sketch=0;fillStyle=solid;size=6;pointerEvents=1;points=[];fillColor=none;resizable=0;rotatable=0;perimeter=centerPerimeter;snapToPoint=1;" parent="1" vertex="1">
          <mxGeometry x="45" y="150" width="20" height="20" as="geometry" />
        </mxCell>
        <mxCell id="H6e9tnJ6ShjufDfO8u7r-34" value="" style="endArrow=none;html=1;rounded=0;dashed=1;" parent="1" target="H6e9tnJ6ShjufDfO8u7r-33" edge="1">
          <mxGeometry width="50" height="50" relative="1" as="geometry">
            <mxPoint x="275" y="320" as="sourcePoint" />
            <mxPoint x="275" y="160" as="targetPoint" />
          </mxGeometry>
        </mxCell>
        <mxCell id="H6e9tnJ6ShjufDfO8u7r-33" value="" style="shape=waypoint;sketch=0;fillStyle=solid;size=6;pointerEvents=1;points=[];fillColor=none;resizable=0;rotatable=0;perimeter=centerPerimeter;snapToPoint=1;" parent="1" vertex="1">
          <mxGeometry x="265" y="150" width="20" height="20" as="geometry" />
        </mxCell>
        <mxCell id="H6e9tnJ6ShjufDfO8u7r-35" value="" style="shape=waypoint;sketch=0;fillStyle=solid;size=6;pointerEvents=1;points=[];fillColor=none;resizable=0;rotatable=0;perimeter=centerPerimeter;snapToPoint=1;" parent="1" vertex="1">
          <mxGeometry x="295" y="150" width="20" height="20" as="geometry" />
        </mxCell>
        <mxCell id="H6e9tnJ6ShjufDfO8u7r-37" value="" style="shape=waypoint;sketch=0;fillStyle=solid;size=6;pointerEvents=1;points=[];fillColor=none;resizable=0;rotatable=0;perimeter=centerPerimeter;snapToPoint=1;" parent="1" vertex="1">
          <mxGeometry x="15" y="150" width="20" height="20" as="geometry" />
        </mxCell>
        <mxCell id="H6e9tnJ6ShjufDfO8u7r-39" value="&lt;font style=&quot;font-size: 20px;&quot; face=&quot;Times New Roman&quot;&gt;a&lt;/font&gt;" style="text;html=1;align=center;verticalAlign=middle;resizable=0;points=[];autosize=1;strokeColor=none;fillColor=none;" parent="1" vertex="1">
          <mxGeometry x="10" y="150" width="30" height="40" as="geometry" />
        </mxCell>
        <mxCell id="H6e9tnJ6ShjufDfO8u7r-41" value="&lt;font style=&quot;font-size: 20px;&quot; face=&quot;Times New Roman&quot;&gt;b&lt;/font&gt;" style="text;html=1;align=center;verticalAlign=middle;resizable=0;points=[];autosize=1;strokeColor=none;fillColor=none;" parent="1" vertex="1">
          <mxGeometry x="290" y="150" width="30" height="40" as="geometry" />
        </mxCell>
      </root>
    </mxGraphModel>
  </diagram>
</mxfile>
